<svg xmlns="http://www.w3.org/2000/svg" viewBox="0 0 1168 784">
<polygon points="967,483 982,483 983,484 987,484 988,485 991,485 992,486 995,487 1003,495 1003,496 1005,499 1005,501 1006,502 1006,515 1005,516 1005,518 1004,519 1003,522 995,530 994,530 991,532 988,532 987,533 967,533 966,532 966,484" fill="#a86d1d"/><polygon points="954,473 954,544 989,544 990,543 996,542 1002,539 1009,533 1010,533 1010,532 1015,526 1016,522 1018,519 1018,516 1019,515 1019,501 1017,498 1017,495 1015,491 1010,485 1010,484 1001,477 997,475 995,475 994,474 991,474 990,473 983,473 982,472 956,472" fill="#a86d1d"/><polygon points="875,472 875,544 927,544 928,545 929,544 929,534 888,534 887,533 887,515 888,514 900,514 901,513 917,514 918,513 923,513 923,503 888,503 887,502 887,484 888,483 928,483 928,473 902,473 901,472 899,473 878,472 877,473" fill="#a86d1d"/><polygon points="794,473 794,484 816,484 817,485 817,545 818,544 820,544 821,545 822,544 829,544 829,485 830,484 851,484 852,483 852,473 799,473 798,472 797,473" fill="#a86d1d"/><polygon points="758,472 757,473 757,544 769,544 769,473 762,473 761,472" fill="#a86d1d"/><polygon points="666,473 665,475 666,476 665,477 665,525 666,526 665,544 666,545 667,544 677,544 677,494 678,493 718,545 725,545 726,544 728,545 728,473 716,473 716,521 715,522 676,472" fill="#a86d1d"/><polygon points="577,473 577,523 579,530 582,535 587,540 597,545 617,545 626,541 633,534 636,528 637,521 638,520 638,473 636,472 633,472 632,473 631,472 627,472 625,473 626,474 626,495 625,496 626,515 625,516 625,522 624,525 619,531 612,534 599,533 591,525 591,523 589,520 589,473 587,472" fill="#a86d1d"/><polygon points="768,380 769,379 791,379 792,380 795,380 801,386 801,387 802,388 802,396 800,398 800,399 798,401 797,401 795,403 793,403 792,404 770,404 769,405 768,404" fill="#a86d1d"/><polygon points="958,368 958,379 980,379 981,380 981,440 994,440 994,382 993,380 994,379 1017,379 1017,368" fill="#a86d1d"/><polygon points="844,368 843,369 843,440 855,440 855,398 856,397 856,375 855,374 856,373 856,369 855,368" fill="#a86d1d"/><polygon points="756,368 756,440 768,440 768,416 769,415 784,415 802,440 816,440 807,426 797,413 798,412 801,412 806,409 813,401 815,390 814,389 814,384 811,378 803,371 798,369 794,369 793,368" fill="#a86d1d"/><polygon points="666,368 666,441 667,440 678,440 678,411 679,410 712,410 713,411 713,440 725,440 725,371 726,369 725,368 714,368 713,369 713,398 712,399 679,399 678,398 678,369" fill="#a86d1d"/><polygon points="900,368 892,372 886,379 884,386 885,395 887,399 893,405 900,408 912,410 922,414 925,418 925,424 923,427 917,430 904,430 895,426 889,421 882,430 889,436 891,436 898,440 902,440 903,441 920,441 929,437 936,429 937,426 937,414 936,411 932,406 924,401 910,398 899,393 897,390 897,384 902,379 913,378 922,381 929,385 935,376 931,373 919,368 915,368 914,367" fill="#a86d1d"/><polygon points="596,370 584,379 576,393 576,396 575,397 575,413 579,424 589,435 602,441 614,442 615,441 622,441 628,438 630,438 636,434 641,428 634,422 632,422 626,427 619,430 614,430 613,431 611,430 610,431 601,428 593,421 590,416 588,409 588,399 593,388 599,382 606,379 618,379 629,384 633,387 640,378 633,372 623,368 607,367 606,368" fill="#a86d1d"/><polygon points="300,357 292,361 284,367 278,374 273,384 271,391 271,409 274,419 280,429 286,435 298,442 305,444 329,443 340,438 350,429 339,419 336,423 330,427 322,430 311,430 304,428 294,420 288,410 287,406 288,391 292,382 301,373 308,370 324,370 340,379 349,368 339,360 330,356 308,355" fill="#a86d1d"/><polygon points="622,265 622,336 634,336 634,286 635,285 671,333 675,337 676,336 685,336 685,265 673,265 673,311 671,313 634,265" fill="#a86d1d"/><polygon points="580,264 579,265 579,336 587,336 588,337 591,337 591,264 590,265 585,265 584,264" fill="#a86d1d"/><polygon points="446,263 472,278 497,311 504,341 498,378 477,410 335,551 248,464 248,356 232,356 231,447 178,390 166,351 174,309 195,280 227,262 259,259 292,270 322,296 289,325 261,336 268,351 303,337 335,310 369,338 369,417 374,429 390,442 416,444 434,435 443,419 444,355 428,356 425,421 412,430 397,429 385,414 385,327 348,296 390,264 408,259" fill="#a86d1d"/><polygon points="216,247 184,266 158,301 149,332 149,359 154,381 161,397 180,422 335,576 489,423 506,401 515,383 521,357 520,326 514,306 502,284 482,263 459,249 435,242 405,242 380,249 358,262 335,283 308,259 279,245 243,241" fill="#a86d1d"/>
</svg>