<svg xmlns="http://www.w3.org/2000/svg" viewBox="0 0 24 24" id="Single-Neutral-Actions-Heart_1--Streamline-Ultimate" height="24" width="24">
  <desc>
    Single Neutral Actions Heart_1 Streamline Icon: https://streamlinehq.com
  </desc>
  <path d="M3.25 4.75a4.25 4.25 0 1 0 8.5 0 4.25 4.25 0 1 0 -8.5 0" fill="#dff9ff" stroke-width="1"></path>
  <path d="M0.5 17.5a7 7 0 0 1 14 0Z" fill="#dff9ff" stroke-width="1"></path>
  <path d="M7.5 3a4.238 4.238 0 0 1 4.042 3 4.2 4.2 0 0 0 0.208 -1.25 4.25 4.25 0 0 0 -8.5 0A4.2 4.2 0 0 0 3.458 6 4.238 4.238 0 0 1 7.5 3" fill="#ffffff" stroke-width="1"></path>
  <path d="M7.5 13a7 7 0 0 1 6.532 4.5h0.468a7 7 0 0 0 -14 0h0.468A7 7 0 0 1 7.5 13" fill="#ffffff" stroke-width="1"></path>
  <path d="M3.25 4.75a4.25 4.25 0 1 0 8.5 0 4.25 4.25 0 1 0 -8.5 0" fill="none" stroke="#00303e" stroke-linecap="round" stroke-linejoin="round" stroke-width="1"></path>
  <path d="M8.5 17.5h-8a7 7 0 0 1 10 -6.326" fill="none" stroke="#00303e" stroke-linecap="round" stroke-linejoin="round" stroke-width="1"></path>
  <path d="M17.861 23.346a0.5 0.5 0 0 1 -0.722 0l-4.753 -4.958a3.027 3.027 0 0 1 -0.567 -3.493 3.026 3.026 0 0 1 4.846 -0.786l0.835 0.835 0.835 -0.835a3.026 3.026 0 0 1 4.846 0.786 3.027 3.027 0 0 1 -0.567 3.493Z" fill="#9feaff" stroke-width="1"></path>
  <path d="M23.181 14.9a3.025 3.025 0 0 0 -4.846 -0.786l-0.835 0.835 -0.835 -0.835a3.021 3.021 0 0 0 -4.971 3.186 7.24 7.24 0 0 0 5.806 2.531 7.237 7.237 0 0 0 5.805 -2.531 3.021 3.021 0 0 0 -0.124 -2.4" fill="#dff9ff" stroke-width="1"></path>
  <path d="M17.861 23.346a0.5 0.5 0 0 1 -0.722 0l-4.753 -4.958a3.027 3.027 0 0 1 -0.567 -3.493h0a3.026 3.026 0 0 1 4.846 -0.786l0.835 0.835 0.835 -0.835a3.026 3.026 0 0 1 4.846 0.786h0a3.027 3.027 0 0 1 -0.567 3.493Z" fill="none" stroke="#00303e" stroke-linecap="round" stroke-linejoin="round" stroke-width="1"></path>
</svg>